<svg width="300" height="300" viewBox="0 0 300 300" fill="none" xmlns="http://www.w3.org/2000/svg">
<g clip-path="url(#clip0)">
<path fill-rule="evenodd" clip-rule="evenodd" d="M210.151 149.997C210.151 182.986 183.253 209.731 150.075 209.731C116.89 209.731 90 182.986 90 149.997C90 117.008 116.89 90.2627 150.075 90.2627C183.253 90.2627 210.151 117.008 210.151 149.997ZM253.052 127.433C242.639 80.4184 200.434 45.1274 150.075 45.1274C127.759 45.1274 107.061 52.0725 90 63.876V12.4407C108.415 4.4522 128.729 0 150.075 0C225.546 0 288.24 55.3857 299.214 127.433H253.052Z" fill="#4DAAA7"/>
<path fill-rule="evenodd" clip-rule="evenodd" d="M253.838 172.56C243.425 219.575 201.22 254.865 150.861 254.865C92.7002 254.865 45.3929 207.819 45.3929 149.996V42.8894C17.4138 70.1281 0 108.071 0 149.996C0 232.708 67.6768 300 150.861 300C226.332 300 289.026 244.607 300 172.56H253.838Z" fill="#31708F"/>
</g>
<defs>
<clipPath id="clip0">
<rect width="300" height="300" fill="white"/>
</clipPath>
</defs>
</svg>
